# xmcd
# Track frame offsets:
# 150
# 12023
# 24600
# 36022
# 48399
# 62061
# 75535
# 88827
# 102522
# 117706
# 130933
# 146558
# 162700
# 176877
# 189631
# 202913
# 214333
# 228128
# 239992
# 252189
# 265274
# 278066
# 290700
# 304332
#
# Disc length: 4222 seconds
# Revision: 0
# Processed by: cddbd v1.4PL0 Copyright (c) Steve Scherf et al.
# Submitted via: VisiTrax 2.9.5.180 - For more info visit www.synapsa.com
#
DISCID=71107c18
DTITLE=Big Bill Broonzy - Big Bill Blues
DYEAR=2002
DGENRE=
TTITLE0=House Rent Stomp
TTITLE1=I Can't Be Satisfied
TTITLE2=Tadpole Blues
TTITLE3=Police Station Blues
TTITLE4=State Street Woman
TTITLE5=Big Bill Blues
TTITLE6=Brownskin Shuffle
TTITLE7=Mr Conductor Man
TTITLE8=Friendless Blues
TTITLE9=I'll Be Back Home
TTITLE10=Serve It To Me Right
TTITLE11=The Southern Blues
TTITLE12=Little Bug
TTITLE13=My Gal Is Gone
TTITLE14=Living On Easy Street
TTITLE15=Baby IDone Got wise
TTITLE16=Just A Dream
TTITLE17=Too Many Drivers
TTITLE18=Midnight Steppers
TTITLE19=I'll Never Dream Again
TTITLE20=My little Flower
TTITLE21=I Feel So Good
TTITLE22=I'm Woke up Now
TTITLE23=Roll Them Bones
EXTD=
EXTT0=
EXTT1=
EXTT2=
EXTT3=
EXTT4=
EXTT5=
EXTT6=
EXTT7=
EXTT8=
EXTT9=
EXTT10=
EXTT11=
EXTT12=
EXTT13=
EXTT14=
EXTT15=
EXTT16=
EXTT17=
EXTT18=
EXTT19=
EXTT20=
EXTT21=
EXTT22=
EXTT23=
PLAYORDER=
